<mxfile host="app.diagrams.net" modified="2023-04-06T19:15:53.159Z" agent="Mozilla/5.0 (Windows NT 10.0; Win64; x64) AppleWebKit/537.36 (KHTML, like Gecko) Chrome/111.0.0.0 Safari/537.36" etag="GoFrGDi3vfi4qb_oa6Hj" version="21.1.4" type="device">
  <diagram name="PÃ¡gina-1" id="5fEzxh84mmSdy5ejU_iH">
    <mxGraphModel dx="574" dy="322" grid="1" gridSize="10" guides="1" tooltips="1" connect="1" arrows="1" fold="1" page="1" pageScale="1" pageWidth="827" pageHeight="1169" math="0" shadow="0">
      <root>
        <mxCell id="0" />
        <mxCell id="1" parent="0" />
        <mxCell id="0bHtTFy6KJN1M6mU55zM-3" value="Test Script" style="rounded=0;whiteSpace=wrap;html=1;" parent="1" vertex="1">
          <mxGeometry x="118" y="160" width="70" height="50" as="geometry" />
        </mxCell>
        <mxCell id="0bHtTFy6KJN1M6mU55zM-4" value="Retrieval Agent" style="rounded=0;whiteSpace=wrap;html=1;" parent="1" vertex="1">
          <mxGeometry x="218" y="160" width="70" height="50" as="geometry" />
        </mxCell>
        <mxCell id="0bHtTFy6KJN1M6mU55zM-6" value="HFB" style="ellipse;shape=cloud;whiteSpace=wrap;html=1;" parent="1" vertex="1">
          <mxGeometry x="320" y="100" width="70" height="60" as="geometry" />
        </mxCell>
        <mxCell id="0bHtTFy6KJN1M6mU55zM-7" value="IPFS" style="ellipse;shape=cloud;whiteSpace=wrap;html=1;" parent="1" vertex="1">
          <mxGeometry x="320" y="200" width="70" height="60" as="geometry" />
        </mxCell>
        <mxCell id="0bHtTFy6KJN1M6mU55zM-10" value="" style="endArrow=classic;html=1;rounded=0;entryX=0.25;entryY=0.25;entryDx=0;entryDy=0;entryPerimeter=0;exitX=1;exitY=0.5;exitDx=0;exitDy=0;startArrow=classic;startFill=1;endFill=1;" parent="1" source="0bHtTFy6KJN1M6mU55zM-4" target="0bHtTFy6KJN1M6mU55zM-7" edge="1">
          <mxGeometry width="50" height="50" relative="1" as="geometry">
            <mxPoint x="290" y="380" as="sourcePoint" />
            <mxPoint x="340" y="330" as="targetPoint" />
          </mxGeometry>
        </mxCell>
        <mxCell id="0bHtTFy6KJN1M6mU55zM-11" value="" style="endArrow=classic;html=1;rounded=0;entryX=0.31;entryY=0.8;entryDx=0;entryDy=0;entryPerimeter=0;exitX=1;exitY=0.5;exitDx=0;exitDy=0;startArrow=classic;startFill=1;endFill=1;" parent="1" source="0bHtTFy6KJN1M6mU55zM-4" target="0bHtTFy6KJN1M6mU55zM-6" edge="1">
          <mxGeometry width="50" height="50" relative="1" as="geometry">
            <mxPoint x="310" y="350" as="sourcePoint" />
            <mxPoint x="360" y="300" as="targetPoint" />
          </mxGeometry>
        </mxCell>
        <mxCell id="0bHtTFy6KJN1M6mU55zM-15" value="" style="endArrow=classic;html=1;rounded=0;exitX=1;exitY=0.25;exitDx=0;exitDy=0;entryX=0;entryY=0.25;entryDx=0;entryDy=0;" parent="1" source="0bHtTFy6KJN1M6mU55zM-3" target="0bHtTFy6KJN1M6mU55zM-4" edge="1">
          <mxGeometry width="50" height="50" relative="1" as="geometry">
            <mxPoint x="190" y="330" as="sourcePoint" />
            <mxPoint x="240" y="280" as="targetPoint" />
          </mxGeometry>
        </mxCell>
        <mxCell id="0bHtTFy6KJN1M6mU55zM-16" value="" style="endArrow=classic;html=1;rounded=0;exitX=0;exitY=0.75;exitDx=0;exitDy=0;entryX=1;entryY=0.75;entryDx=0;entryDy=0;" parent="1" source="0bHtTFy6KJN1M6mU55zM-4" target="0bHtTFy6KJN1M6mU55zM-3" edge="1">
          <mxGeometry width="50" height="50" relative="1" as="geometry">
            <mxPoint x="140" y="320" as="sourcePoint" />
            <mxPoint x="190" y="270" as="targetPoint" />
          </mxGeometry>
        </mxCell>
        <mxCell id="0bHtTFy6KJN1M6mU55zM-18" value="1" style="text;html=1;align=center;verticalAlign=middle;resizable=0;points=[];autosize=1;strokeColor=none;fillColor=none;" parent="1" vertex="1">
          <mxGeometry x="188" y="142" width="30" height="30" as="geometry" />
        </mxCell>
        <mxCell id="0bHtTFy6KJN1M6mU55zM-19" value="2" style="text;html=1;align=center;verticalAlign=middle;resizable=0;points=[];autosize=1;strokeColor=none;fillColor=none;" parent="1" vertex="1">
          <mxGeometry x="295" y="141" width="30" height="30" as="geometry" />
        </mxCell>
        <mxCell id="0bHtTFy6KJN1M6mU55zM-20" value="3" style="text;html=1;align=center;verticalAlign=middle;resizable=0;points=[];autosize=1;strokeColor=none;fillColor=none;" parent="1" vertex="1">
          <mxGeometry x="295" y="200" width="30" height="30" as="geometry" />
        </mxCell>
        <mxCell id="0bHtTFy6KJN1M6mU55zM-22" value="&lt;div align=&quot;left&quot;&gt;1 - Capture initial time&lt;/div&gt;&lt;div align=&quot;left&quot;&gt;2 - Manifest retrieved from ledger&lt;/div&gt;&lt;div align=&quot;left&quot;&gt;3 - Payload retrieved from IPFS&lt;/div&gt;&lt;div align=&quot;left&quot;&gt;4 - Final response&lt;br&gt;&lt;/div&gt;" style="text;html=1;align=left;verticalAlign=middle;resizable=0;points=[];autosize=1;strokeColor=none;fillColor=none;" parent="1" vertex="1">
          <mxGeometry x="95" y="230" width="200" height="70" as="geometry" />
        </mxCell>
        <mxCell id="0bHtTFy6KJN1M6mU55zM-23" value="4" style="text;html=1;align=center;verticalAlign=middle;resizable=0;points=[];autosize=1;strokeColor=none;fillColor=none;" parent="1" vertex="1">
          <mxGeometry x="188" y="198" width="30" height="30" as="geometry" />
        </mxCell>
      </root>
    </mxGraphModel>
  </diagram>
</mxfile>
